<svg width="100" height="100" viewBox="0 0 100 100" fill="none" xmlns="http://www.w3.org/2000/svg">
<path d="M37.5 12.5H20.8333C18.6232 12.5 16.5036 13.378 14.9408 14.9408C13.378 16.5036 12.5 18.6232 12.5 20.8333V37.5C12.5 39.7101 13.378 41.8298 14.9408 43.3926C16.5036 44.9554 18.6232 45.8333 20.8333 45.8333H37.5C39.7101 45.8333 41.8298 44.9554 43.3926 43.3926C44.9554 41.8298 45.8333 39.7101 45.8333 37.5V20.8333C45.8333 18.6232 44.9554 16.5036 43.3926 14.9408C41.8298 13.378 39.7101 12.5 37.5 12.5ZM20.8333 37.5V20.8333H37.5V37.5H20.8333Z" fill="#D9D9D9"/>
<path d="M79.167 12.5H62.5003C60.2902 12.5 58.1706 13.378 56.6078 14.9408C55.045 16.5036 54.167 18.6232 54.167 20.8333V37.5C54.167 39.7101 55.045 41.8298 56.6078 43.3926C58.1706 44.9554 60.2902 45.8333 62.5003 45.8333H79.167C81.3771 45.8333 83.4967 44.9554 85.0595 43.3926C86.6223 41.8298 87.5003 39.7101 87.5003 37.5V20.8333C87.5003 18.6232 86.6223 16.5036 85.0595 14.9408C83.4967 13.378 81.3771 12.5 79.167 12.5ZM62.5003 37.5V20.8333H79.167V37.5H62.5003Z" fill="#D9D9D9"/>
<path d="M37.5 54.1665H20.8333C18.6232 54.1665 16.5036 55.0445 14.9408 56.6073C13.378 58.1701 12.5 60.2897 12.5 62.4998V79.1665C12.5 81.3766 13.378 83.4963 14.9408 85.0591C16.5036 86.6219 18.6232 87.4998 20.8333 87.4998H37.5C39.7101 87.4998 41.8298 86.6219 43.3926 85.0591C44.9554 83.4963 45.8333 81.3766 45.8333 79.1665V62.4998C45.8333 60.2897 44.9554 58.1701 43.3926 56.6073C41.8298 55.0445 39.7101 54.1665 37.5 54.1665ZM20.8333 79.1665V62.4998H37.5V79.1665H20.8333Z" fill="#D9D9D9"/>
<path d="M79.167 54.1665H62.5003C60.2902 54.1665 58.1706 55.0445 56.6078 56.6073C55.045 58.1701 54.167 60.2897 54.167 62.4998V79.1665C54.167 81.3766 55.045 83.4963 56.6078 85.0591C58.1706 86.6219 60.2902 87.4998 62.5003 87.4998H79.167C81.3771 87.4998 83.4967 86.6219 85.0595 85.0591C86.6223 83.4963 87.5003 81.3766 87.5003 79.1665V62.4998C87.5003 60.2897 86.6223 58.1701 85.0595 56.6073C83.4967 55.0445 81.3771 54.1665 79.167 54.1665ZM62.5003 79.1665V62.4998H79.167V79.1665H62.5003Z" fill="#D9D9D9"/>
</svg>
