<svg width="100" height="100" viewBox="0 0 100 100" fill="currentColor" xmlns="http://www.w3.org/2000/svg">
<path d="M79.1663 83.3331H20.8329C19.7279 83.3331 18.6681 83.7721 17.8866 84.5535C17.1052 85.3349 16.6663 86.3947 16.6663 87.4998C16.6663 88.6049 17.1052 89.6647 17.8866 90.4461C18.6681 91.2275 19.7279 91.6665 20.8329 91.6665H79.1663C80.2713 91.6665 81.3311 91.2275 82.1125 90.4461C82.8939 89.6647 83.3329 88.6049 83.3329 87.4998C83.3329 86.3947 82.8939 85.3349 82.1125 84.5535C81.3311 83.7721 80.2713 83.3331 79.1663 83.3331Z" fill="#D9D9D9"/>
<path d="M20.8333 75H21.2083L38.5833 73.4166C40.4867 73.227 42.2668 72.3884 43.625 71.0416L81.125 33.5416C82.5805 32.004 83.3671 29.9521 83.3124 27.8355C83.2578 25.719 82.3663 23.7104 80.8333 22.25L69.4167 10.8333C67.9266 9.43371 65.9741 8.63064 63.9306 8.57686C61.887 8.52308 59.8949 9.22235 58.3333 10.5416L20.8333 48.0416C19.4865 49.3998 18.648 51.18 18.4583 53.0833L16.6667 70.4583C16.6106 71.0686 16.6897 71.6837 16.8986 72.2599C17.1075 72.8361 17.4409 73.3591 17.875 73.7916C18.2643 74.1778 18.7261 74.4833 19.2337 74.6907C19.7414 74.898 20.285 75.0031 20.8333 75ZM63.625 16.6666L75 28.0416L66.6667 36.1666L55.5 25L63.625 16.6666Z" fill="#D9D9D9"/>
</svg>
