<svg width="100" height="100" viewBox="0 0 100 100" fill="currentColor" xmlns="http://www.w3.org/2000/svg">
<path d="M37.5004 45.8333C40.7968 45.8333 44.0191 44.8559 46.7599 43.0245C49.5007 41.1931 51.6369 38.5902 52.8984 35.5447C54.1599 32.4993 54.4899 29.1482 53.8468 25.9152C53.2037 22.6822 51.6164 19.7124 49.2855 17.3816C46.9546 15.0507 43.9849 13.4633 40.7519 12.8203C37.5189 12.1772 34.1678 12.5072 31.1223 13.7687C28.0769 15.0301 25.4739 17.1663 23.6426 19.9072C21.8112 22.648 20.8337 25.8703 20.8337 29.1667C20.8337 33.5869 22.5897 37.8262 25.7153 40.9518C28.8409 44.0774 33.0801 45.8333 37.5004 45.8333Z" fill="#D9D9D9"/>
<path d="M70.8337 54.1665C73.306 54.1665 75.7227 53.4334 77.7784 52.0599C79.834 50.6864 81.4361 48.7341 82.3822 46.4501C83.3283 44.166 83.5759 41.6526 83.0936 39.2279C82.6112 36.8031 81.4207 34.5758 79.6726 32.8277C77.9244 31.0795 75.6971 29.889 73.2724 29.4067C70.8476 28.9244 68.3343 29.1719 66.0502 30.118C63.7661 31.0641 61.8139 32.6663 60.4404 34.7219C59.0669 36.7775 58.3337 39.1942 58.3337 41.6665C58.3337 44.9817 59.6507 48.1611 61.9949 50.5053C64.3391 52.8495 67.5185 54.1665 70.8337 54.1665Z" fill="#D9D9D9"/>
<path d="M87.5004 83.3332C88.6055 83.3332 89.6653 82.8942 90.4467 82.1128C91.2281 81.3314 91.6671 80.2716 91.6671 79.1665C91.6637 75.2723 90.569 71.457 88.5071 68.1535C86.4452 64.85 83.4987 62.1905 80.0019 60.4768C76.505 58.7631 72.5979 58.0637 68.7237 58.4582C64.8495 58.8526 61.1635 60.3249 58.0837 62.7082C54.0025 58.643 48.809 55.8773 43.158 54.7599C37.507 53.6426 31.6517 54.2235 26.3305 56.4296C21.0093 58.6356 16.4605 62.3679 13.2577 67.1558C10.0549 71.9437 8.34153 77.5728 8.33374 83.3332C8.33374 84.4382 8.77273 85.498 9.55413 86.2794C10.3355 87.0608 11.3953 87.4998 12.5004 87.4998H62.5004C63.6055 87.4998 64.6653 87.0608 65.4467 86.2794C66.2281 85.498 66.6671 84.4382 66.6671 83.3332" fill="#D9D9D9"/>
</svg>
